<svg width="65" height="48" viewBox="0 0 65 48" fill="none" xmlns="http://www.w3.org/2000/svg">
<rect x="0.5" y="1.5" width="63.2333" height="46" rx="5.5" fill="url(#paint0_linear_1_41)" stroke="black"/>
<rect x="0.5" y="16.3833" width="17.8" height="14.6667" fill="url(#paint1_linear_1_41)" stroke="black"/>
<path d="M18.4084 30.7667V40.1667C21.8191 42.6512 21.3321 44.5957 18.0167 47.6083" stroke="black"/>
<rect x="-0.5" y="0.5" width="17.8" height="14.6667" transform="matrix(-1 0 0 1 63.2333 15.8833)" fill="url(#paint2_linear_1_41)" stroke="black"/>
<path d="M45.7668 1.39167C42.3 2.56667 42.3807 5.19472 45.7668 9.225V40.3853C41.8507 42.9276 42.6917 44.475 45.0417 47.6083" stroke="black"/>
<path d="M18.4083 1.39167C18.8 3.48056 18.4083 5.7 14.8833 7.26667" stroke="black"/>
<defs>
<linearGradient id="paint0_linear_1_41" x1="32.1167" y1="1" x2="32.1167" y2="48" gradientUnits="userSpaceOnUse">
<stop stop-color="#B7B7B7"/>
<stop offset="0.505208" stop-color="#DFD6D6"/>
<stop offset="1" stop-color="#EFE1E1"/>
</linearGradient>
<linearGradient id="paint1_linear_1_41" x1="9.4" y1="15.8833" x2="9.4" y2="31.55" gradientUnits="userSpaceOnUse">
<stop stop-color="#B7B7B7"/>
<stop offset="0.505208" stop-color="#DFD6D6"/>
<stop offset="1" stop-color="#EFE1E1"/>
</linearGradient>
<linearGradient id="paint2_linear_1_41" x1="9.4" y1="0" x2="9.4" y2="15.6667" gradientUnits="userSpaceOnUse">
<stop stop-color="#B7B7B7"/>
<stop offset="0.505208" stop-color="#DFD6D6"/>
<stop offset="1" stop-color="#EFE1E1"/>
</linearGradient>
</defs>
</svg>
