<svg width="213" height="213" viewBox="0 0 213 213" fill="none" xmlns="http://www.w3.org/2000/svg">
<path d="M194.218 32.5702C193.541 32.4795 192.836 32.9749 192.692 33.6419C192.548 34.3094 192.984 35.0508 193.638 35.2481C194.293 35.4453 195.067 35.0694 195.316 34.4333C195.565 33.7972 195.326 32.7184 194.218 32.5702Z" fill="#B9D8FF"/>
<path d="M31.1133 182.651C30.4359 182.583 29.7315 182.954 29.5872 183.455C29.4429 183.956 29.8796 184.512 30.5341 184.66C31.1877 184.808 31.9622 184.526 32.2112 184.049C32.4599 183.571 32.2209 182.762 31.1133 182.651Z" fill="#B9D8FF"/>
<path d="M13.2945 42.8498C12.6172 42.7596 11.9128 43.2545 11.7687 43.9215C11.6244 44.5894 12.0613 45.3303 12.7154 45.528C13.3692 45.7248 14.1438 45.3488 14.3928 44.7128C14.6415 44.0763 14.4023 42.998 13.2945 42.8498Z" fill="#B9D8FF"/>
<path d="M177.085 26.4023C176.408 26.3117 175.703 26.8066 175.559 27.4741C175.415 28.1416 175.851 28.883 176.506 29.0802C177.159 29.2775 177.934 28.9015 178.183 28.2654C178.432 27.6289 178.192 26.5505 177.085 26.4023Z" fill="#B9D8FF"/>
<path d="M27.0145 21.3243C25.832 20.1036 23.8934 19.867 22.4934 20.7724C21.0933 21.6778 20.352 23.6475 20.7638 25.3662C21.1761 27.0855 22.7062 28.4061 24.3327 28.4466C25.9596 28.4871 27.5435 27.2438 28.0267 25.5472C28.405 24.2187 28.1434 22.4898 27.0145 21.3243Z" fill="#B9D8FF"/>
<path d="M201.437 46.6715C200.56 45.9724 199.229 46.2007 198.571 47.171C197.912 48.1413 198.036 49.7077 198.841 50.5141C199.648 51.3206 201.005 51.2269 201.717 50.3079C202.428 49.388 202.54 47.5524 201.437 46.6715Z" fill="#B9D8FF"/>
<path d="M18.4577 169.285C17.5808 168.686 16.2505 168.881 15.5917 169.713C14.9329 170.545 15.0568 171.888 15.8625 172.579C16.6686 173.27 18.0266 173.189 18.7381 172.402C19.449 171.614 19.5615 170.041 18.4577 169.285Z" fill="#B9D8FF"/>
<path d="M171.831 193.329C170.808 192.629 169.255 192.858 168.487 193.829C167.719 194.799 167.863 196.365 168.803 197.172C169.743 197.978 171.328 197.884 172.158 196.965C172.987 196.046 173.119 194.21 171.831 193.329Z" fill="#B9D8FF"/>
<path d="M140.646 18.4524C109.58 9.29102 73.8947 8.29449 46.8237 26.0133C27.2468 38.8274 14.2591 60.5289 10.3517 83.521C6.44454 106.513 11.2242 130.559 21.8949 151.319C29.7655 166.631 41.1015 180.589 56.1011 189.133C70.8826 197.553 88.3134 200.255 105.344 200.45C122.156 200.642 139.269 198.455 154.554 191.484C176.643 181.41 193.708 161.366 200.916 138.274C208.124 115.183 205.601 89.4087 194.85 67.7247C184.1 46.0403 166.276 26.0107 140.646 18.4524Z" fill="#E8F2FF"/>
<line x1="12.5502" y1="123.473" x2="70.2407" y2="137.526" stroke="#D1E5FF" stroke-width="5"/>
<line x1="126.077" y1="85.5804" x2="68.3862" y2="138.833" stroke="#D1E5FF" stroke-width="5"/>
<line x1="122.537" y1="85.7534" x2="170.613" y2="33.2402" stroke="#D1E5FF" stroke-width="5"/>
<circle cx="66.6906" cy="136.996" r="7.39623" fill="#D1E5FF"/>
<circle cx="124.381" cy="83.7434" r="7.39623" fill="#D1E5FF"/>
<circle cx="173.196" cy="31.9698" r="7.39623" fill="#D1E5FF"/>
<line x1="13.1492" y1="152.24" x2="62.7039" y2="102.685" stroke="#177DFF" stroke-width="5"/>
<line x1="126.947" y1="114.318" x2="61.86" y2="103.963" stroke="#177DFF" stroke-width="5"/>
<line x1="125.496" y1="113.859" x2="173.571" y2="61.3458" stroke="#177DFF" stroke-width="5"/>
<circle cx="62.2528" cy="104.453" r="7.39623" fill="#177DFF"/>
<circle cx="127.34" cy="111.849" r="7.39623" fill="#177DFF"/>
<circle cx="176.155" cy="60.0755" r="7.39623" fill="#177DFF"/>
</svg>
