<svg width="213" height="213" viewBox="0 0 213 213" fill="none" xmlns="http://www.w3.org/2000/svg">
<path d="M192.383 34.2553C191.716 34.166 191.022 34.6539 190.88 35.3107C190.738 35.968 191.168 36.698 191.812 36.8922C192.456 37.0865 193.219 36.7163 193.464 36.0899C193.709 35.4636 193.474 34.4012 192.383 34.2553Z" fill="#B9D8FF"/>
<path d="M31.7748 182.039C31.1078 181.972 30.4141 182.338 30.272 182.831C30.1299 183.324 30.56 183.871 31.2045 184.017C31.8481 184.163 32.6107 183.885 32.8559 183.415C33.1008 182.945 32.8655 182.149 31.7748 182.039Z" fill="#B9D8FF"/>
<path d="M14.2285 44.3776C13.5616 44.2888 12.868 44.7761 12.7261 45.4329C12.584 46.0906 13.0142 46.8201 13.6583 47.0148C14.302 47.2086 15.0648 46.8384 15.31 46.2121C15.5549 45.5854 15.3194 44.5235 14.2285 44.3776Z" fill="#B9D8FF"/>
<path d="M175.512 28.1819C174.845 28.0926 174.151 28.58 174.01 29.2373C173.868 29.8945 174.297 30.6245 174.942 30.8188C175.586 31.0131 176.349 30.6428 176.594 30.0165C176.839 29.3897 176.603 28.3278 175.512 28.1819Z" fill="#B9D8FF"/>
<path d="M27.7387 23.1816C26.5743 21.9796 24.6654 21.7466 23.2869 22.6381C21.9081 23.5297 21.1782 25.4692 21.5837 27.1617C21.9897 28.8546 23.4964 30.155 25.098 30.1949C26.7 30.2347 28.2596 29.0105 28.7354 27.3398C29.108 26.0317 28.8503 24.3292 27.7387 23.1816Z" fill="#B9D8FF"/>
<path d="M199.492 48.1409C198.628 47.4524 197.318 47.6773 196.669 48.6327C196.021 49.5882 196.142 51.1305 196.936 51.9246C197.73 52.7187 199.067 52.6265 199.767 51.7216C200.467 50.8157 200.578 49.0082 199.492 48.1409Z" fill="#B9D8FF"/>
<path d="M19.3132 168.877C18.4498 168.287 17.1398 168.48 16.4911 169.299C15.8423 170.118 15.9644 171.44 16.7577 172.121C17.5514 172.801 18.8887 172.722 19.5893 171.947C20.2893 171.171 20.4001 169.622 19.3132 168.877Z" fill="#B9D8FF"/>
<path d="M170.339 192.554C169.332 191.865 167.803 192.09 167.046 193.045C166.289 194.001 166.431 195.543 167.357 196.337C168.283 197.132 169.844 197.039 170.661 196.134C171.477 195.228 171.607 193.421 170.339 192.554Z" fill="#B9D8FF"/>
<path d="M139.631 20.3536C109.04 11.3325 73.9015 10.3512 47.2447 27.7988C27.9675 40.4167 15.1786 61.7861 11.331 84.4263C7.48365 107.066 12.1901 130.744 22.6975 151.187C30.4476 166.265 41.6102 180.009 56.3802 188.422C70.9354 196.713 88.0994 199.374 104.869 199.566C121.424 199.754 138.275 197.601 153.326 190.737C175.077 180.817 191.881 161.08 198.978 138.342C206.076 115.604 203.592 90.2239 193.006 68.8718C182.42 47.5193 164.869 27.7962 139.631 20.3536Z" fill="#E8F2FF"/>
<path d="M104.577 112.401C109.865 113.141 115.204 113.506 120.543 113.493C120.499 112.809 119.562 112.296 118.944 112.593C118.952 112.609 118.834 112.285 118.842 112.301C118.651 111.676 118.34 111.072 117.858 110.63C117.376 110.189 116.705 109.926 116.059 110.031C115.232 110.165 114.601 110.852 114.196 111.586C114.385 110.559 113.736 109.387 112.833 108.862C111.93 108.337 110.745 108.382 109.843 108.91C108.942 109.438 108.333 110.407 108.17 111.439C107.801 110.863 106.829 110.745 106.192 110.996C105.557 111.246 104.925 111.813 104.577 112.401Z" fill="#92CEE0"/>
<path d="M51.0371 112.668C51.0002 112.668 50.9633 112.655 50.9341 112.627C50.8733 112.571 50.87 112.475 50.9268 112.414L63.0219 99.4519L67.8881 103.254L95.0366 81.8807L98.5398 84.4926L110.294 71.9341C110.351 71.8734 110.447 71.8703 110.507 71.9271C110.568 71.9838 110.571 72.0793 110.514 72.1402L98.5755 84.8958L95.0417 82.2607L67.889 103.637L63.0538 99.8595L51.1473 112.62C51.1174 112.652 51.0772 112.668 51.0371 112.668Z" fill="#4597FF"/>
<path d="M108.857 71.8421L110.745 73.4055L111.364 70.9574L108.857 71.8421Z" fill="#4597FF"/>
<path d="M63.8835 99.7872C63.8835 100.273 63.4891 100.668 63.0029 100.668C62.5166 100.668 62.1223 100.273 62.1223 99.7872C62.1223 99.3008 62.5166 98.9066 63.0029 98.9066C63.4891 98.9066 63.8835 99.3008 63.8835 99.7872Z" fill="#4597FF"/>
<path d="M68.776 103.172C68.776 103.658 68.3818 104.052 67.8954 104.052C67.4092 104.052 67.0148 103.658 67.0148 103.172C67.0148 102.686 67.4092 102.291 67.8954 102.291C68.3818 102.291 68.776 102.686 68.776 103.172Z" fill="#4597FF"/>
<path d="M52.4734 92.32C52.4157 92.32 52.3609 92.287 52.3358 92.2311C52.3015 92.1551 52.3357 92.066 52.4115 92.0319L69.5121 84.3572L67.4903 74.004L85.5937 62.485L88.6702 65.6623L103.777 58.4485C103.853 58.4125 103.942 58.4446 103.978 58.5195C104.014 58.5946 103.982 58.6849 103.907 58.7206L88.6045 66.028L85.5481 62.8713L67.8253 74.1481L69.8541 84.5343L52.5351 92.3068C52.5149 92.3161 52.494 92.32 52.4734 92.32Z" fill="#92CEE0"/>
<path d="M89.5178 65.5576C89.5178 66.044 89.1236 66.4382 88.6375 66.4382C88.1511 66.4382 87.7569 66.044 87.7569 65.5576C87.7569 65.0715 88.1511 64.6772 88.6375 64.6772C89.1236 64.6772 89.5178 65.0715 89.5178 65.5576Z" fill="#92CEE0"/>
<path d="M86.5975 62.854C86.5975 63.3404 86.2033 63.7346 85.7169 63.7346C85.2307 63.7346 84.8365 63.3404 84.8365 62.854C84.8365 62.3676 85.2307 61.9734 85.7169 61.9734C86.2033 61.9734 86.5975 62.3676 86.5975 62.854Z" fill="#92CEE0"/>
<path d="M68.6578 74.0763C68.6578 74.5624 68.2636 74.9569 67.7772 74.9569C67.2908 74.9569 66.8966 74.5624 66.8966 74.0763C66.8966 73.5899 67.2908 73.1957 67.7772 73.1957C68.2636 73.1957 68.6578 73.5899 68.6578 74.0763Z" fill="#92CEE0"/>
<path d="M70.419 84.4457C70.419 84.9321 70.0248 85.3263 69.5384 85.3263C69.052 85.3263 68.6578 84.9321 68.6578 84.4457C68.6578 83.9593 69.052 83.5651 69.5384 83.5651C70.0248 83.5651 70.419 83.9593 70.419 84.4457Z" fill="#92CEE0"/>
<path d="M70.7339 119.861H76.2873L73.5793 116.275L70.7339 119.861Z" fill="#E1F2F9"/>
<path d="M74.7091 137.599H72.3121V118.839H74.7091V137.599Z" fill="#E1F2F9"/>
<path d="M131.422 110.992H136.976L134.268 107.406L131.422 110.992Z" fill="#E1F2F9"/>
<path d="M135.397 128.73H133V109.97H135.397V128.73Z" fill="#E1F2F9"/>
<path d="M68.776 129.822H62.6106V107.606H68.776V129.822Z" fill="#E1F2F9"/>
<path d="M60.6528 109.422H70.7339L65.8185 102.912L60.6528 109.422Z" fill="#E1F2F9"/>
<path d="M129.208 141.373H123.043V119.157H129.208V141.373Z" fill="#E1F2F9"/>
<path d="M121.085 120.974H131.166L126.251 114.463L121.085 120.974Z" fill="#E1F2F9"/>
<path d="M167.056 155.29H160.891V114.55H167.056V155.29Z" fill="#E1F2F9"/>
<path d="M158.933 116.367H169.014L164.099 109.856L158.933 116.367Z" fill="#E1F2F9"/>
<path d="M52.4733 167.065H46.308V126.325H52.4733V167.065Z" fill="#E1F2F9"/>
<path d="M44.3502 128.141H54.4311L49.5157 121.631L44.3502 128.141Z" fill="#E1F2F9"/>
<path d="M52.262 159.754C47.0854 161.415 41.5126 164.095 44.7133 167.597C45.8248 168.814 47.5623 169.187 49.1832 169.482C80.6051 175.212 112.955 175.822 144.57 171.281C152.01 170.213 159.45 168.85 166.517 166.291C169.457 165.227 172.846 163.118 172.48 160.014C172.129 157.04 168.61 155.711 165.663 155.178C150.548 152.446 135.04 154.148 119.683 154.481C107.042 154.755 94.3832 154.094 81.757 154.763C74.1126 155.168 66.4647 156.074 59.0305 157.94C58.0358 158.19 55.2133 158.806 52.262 159.754Z" fill="#92CEE0"/>
<path d="M55.3893 121.631L112.199 133.683L157.982 121.631L112.199 140.9L55.3893 121.631Z" fill="#093266"/>
<path d="M77.6294 126.827C77.3937 126.967 77.1679 127.226 77.2534 127.486C77.2914 127.602 77.3844 127.69 77.4791 127.767C78.1463 128.307 79.0199 128.5 79.8592 128.678C81.6148 129.05 83.3704 129.422 85.1257 129.794C85.4442 129.862 85.7957 129.925 86.0806 129.767C86.5081 129.529 86.5556 128.942 86.5296 128.453C86.5047 127.987 86.4583 127.511 86.2566 127.09C85.9993 126.554 85.4869 126.148 84.9075 126.016C84.277 125.873 83.6296 126.088 83.0916 126.414C82.6714 126.67 82.3227 126.851 81.8145 126.853C81.1331 126.856 80.4618 126.686 79.791 126.588C79.0671 126.483 78.2829 126.439 77.6294 126.827Z" fill="#1E3D44"/>
<path d="M93.0597 77.8211L88.5551 80.0631C86.4161 81.1275 84.9025 83.3056 84.5401 85.8398L81.5072 107.042C81.5072 107.042 89.2345 108.497 89.7963 102.911C90.3584 97.3242 93.0597 77.8211 93.0597 77.8211Z" fill="#1E3D44"/>
<path d="M107.868 138.951C104.909 126.144 102.088 113.305 99.407 100.437C96.9588 99.9942 94.2664 99.5961 91.795 99.8858C91.4997 99.9204 90.8963 99.7752 90.6074 99.845C93.6266 111.971 96.6459 124.098 99.6648 136.225C99.7394 136.525 99.8202 136.837 100.021 137.072C100.279 137.374 100.687 137.493 101.071 137.595C103.559 138.252 105.321 138.585 107.868 138.951Z" fill="#44457B"/>
<path d="M88.8104 100.149C85.0332 102.638 81.2563 105.127 77.4791 107.616C76.7145 108.12 75.9275 108.646 75.4296 109.415C74.1864 111.335 75.1838 113.862 76.1968 115.913C77.9387 119.44 79.6806 122.967 81.4223 126.494C83.345 126.742 85.3098 127.088 87.2325 127.336C86.4296 122.712 84.7044 118.135 83.0091 113.758C83.4031 114.044 84.0138 114.066 84.2007 113.617C84.3876 113.168 84.0632 112.586 83.5827 112.508C87.3744 110.687 90.9474 108.169 94.2153 105.52C94.4064 105.365 94.6056 105.195 94.6785 104.961C94.764 104.686 94.655 104.391 94.5477 104.124C94.1507 103.136 93.7543 102.148 93.3576 101.16C93.2215 100.821 93.0779 100.471 92.8106 100.223C92.5342 99.9666 92.1582 99.8495 91.7894 99.7702C90.9454 99.5883 89.5312 99.6738 88.8104 100.149Z" fill="#44457B"/>
<path d="M90.2456 70.4159C90.3545 69.344 91.0594 68.3522 92.0361 67.8968C93.0128 67.4411 94.2256 67.5389 95.1168 68.1446C95.5487 68.4382 95.9175 68.8665 96.0131 69.38C96.0321 69.4825 96.0427 69.5934 96.1097 69.6733C96.2047 69.7868 96.3726 69.7946 96.5201 69.7999C96.8937 69.8136 97.277 69.8731 97.5957 70.0678C97.9145 70.2625 98.157 70.616 98.1327 70.9889C98.0981 71.5206 97.5589 71.9349 97.5781 72.4674C97.5868 72.7051 97.7089 72.9264 97.7276 73.1636C97.7754 73.762 97.1968 74.1898 96.799 74.6396C96.2206 75.2939 95.7946 76.2898 94.9229 76.3418C94.0826 76.3918 93.5205 75.4914 93.2794 74.6848C93.0382 73.8785 92.8522 72.9415 92.1294 72.5099C91.9157 72.3822 91.6746 72.3149 91.4508 72.2084C91.2438 72.1098 91.0943 71.9575 90.9153 71.8195C90.6672 71.6279 90.4747 71.4896 90.3512 71.1878C90.2512 70.9431 90.2188 70.6788 90.2456 70.4159Z" fill="#1E3D44"/>
<path d="M90.245 73.1904C90.0129 74.9259 90.6658 77.2224 92.6125 77.0257C93.9071 76.8947 95.1333 75.6107 95.3654 73.8752C95.5973 72.1397 95.1034 70.3637 93.2737 70.0276C90.9544 69.6016 90.4769 71.4549 90.245 73.1904Z" fill="#FCBA9D"/>
<path d="M94.8819 73.7238C94.6352 74.216 94.5192 75.076 94.9221 75.2777C95.325 75.4794 96.0938 74.9466 96.3402 74.4543C96.5869 73.9621 96.4604 73.3994 96.0575 73.1977C95.6549 72.996 95.1286 73.2315 94.8819 73.7238Z" fill="#FCBA9D"/>
<path d="M94.9945 77.9946C95.1252 78.2902 95.3166 78.5813 95.2976 78.904C95.2856 79.1121 95.1858 79.3041 95.08 79.4834C94.8224 79.9198 94.5078 80.335 94.0879 80.6183C93.6677 80.9018 93.1291 81.0398 92.6432 80.8957C92.1574 80.7515 91.7584 80.2866 91.7777 79.7804C91.8062 79.0331 92.6228 78.5659 92.8779 77.863C93.0251 77.4574 92.972 77.007 93.0603 76.5846C93.1902 75.9638 93.7169 75.2833 94.3645 75.1411C94.7028 75.0667 94.9241 74.9687 94.9257 75.236C94.928 75.604 94.7338 76.4268 94.7444 76.7972C94.7562 77.2073 94.828 77.6177 94.9945 77.9946Z" fill="#FCBA9D"/>
<path d="M94.9944 77.9946L93.1511 79.6491L92.8756 77.8879C92.8756 77.8879 91.343 79.4965 90.8275 80.4299C90.3121 81.3639 89.1038 84.0767 88.0768 91.2793C87.0501 98.4822 87.5035 99.938 88.5129 100.573C89.5225 101.208 94.8606 101.142 94.8606 101.142L95.6753 81.0186L94.9944 77.9946Z" fill="#E1F2F9"/>
<path d="M92.0051 80.295C92.0283 80.6006 92.2608 80.8789 92.5572 80.9565C91.1354 83.8135 90.157 86.9417 89.8629 90.1196C90.2325 90.7035 90.6119 91.2667 91.1181 91.7375C91.7481 91.2494 92.5192 90.7236 93.1746 90.2702C92.6932 88.1069 92.7318 85.7619 92.7798 83.5464C92.798 82.7172 92.8159 81.8883 92.8338 81.0594C93.1805 81.0689 93.5126 80.8705 93.7297 80.5998C93.616 80.4196 93.5065 80.2402 93.3931 80.06C93.3584 80.0047 93.3202 79.9466 93.2601 79.9209C93.205 79.8972 93.1422 79.9055 93.083 79.9159C92.7466 79.9734 92.3194 80.1623 92.0051 80.295Z" fill="#4597FF"/>
<path d="M90.986 80.7859C91.4028 80.6786 91.8132 80.5484 92.2141 80.3917C92.3977 80.3199 92.5792 80.2433 92.7586 80.162C92.8405 80.1249 92.9726 80.022 93.0587 80.0201C93.1377 80.0181 93.0592 79.9949 93.1204 80.0461C93.155 80.0748 93.1888 80.1461 93.2143 80.1816C93.6523 80.7948 94.1943 81.3203 94.8148 81.7472C94.9696 81.8536 95.1152 81.6016 94.9618 81.496C94.6181 81.2597 94.2997 80.9909 94.0108 80.69C93.8739 80.547 93.7434 80.3981 93.621 80.2425C93.5065 80.0972 93.4096 79.8821 93.2643 79.7667C93.1358 79.6642 93.0095 79.7231 92.8787 79.7851C92.6678 79.8854 92.4563 79.9829 92.2398 80.0704C91.8062 80.2453 91.3612 80.3889 90.9086 80.5054C90.7275 80.552 90.8044 80.8325 90.986 80.7859Z" fill="#85A1AA"/>
<path d="M94.9944 77.9946L99.446 81.0401C101.56 82.4859 102.789 84.91 102.708 87.4694L102.029 108.883C102.029 108.883 93.4039 108.871 93.8392 103.273C94.2745 97.6754 94.9944 77.9946 94.9944 77.9946Z" fill="#1E3D44"/>
<path d="M98.8367 106.841C100.769 114.583 102.702 122.325 104.635 130.066C105.164 132.185 105.693 134.304 106.222 136.423C106.265 136.595 106.531 136.523 106.487 136.35C104.555 128.608 102.622 120.866 100.689 113.124C100.16 111.005 99.6316 108.886 99.1027 106.767C99.0597 106.596 98.7937 106.668 98.8367 106.841Z" fill="#1E3D44"/>
<path d="M92.3082 106.649C92.0529 105.133 91.6665 103.328 90.202 102.52C90.0467 102.434 89.9075 102.672 90.0629 102.758C91.4578 103.527 91.8001 105.283 92.0426 106.722C92.0719 106.896 92.3376 106.822 92.3082 106.649Z" fill="#1E3D44"/>
<path d="M90.8315 103.981C90.5253 103.673 90.0992 103.497 89.665 103.5C89.4876 103.501 89.4874 103.777 89.665 103.776C90.0254 103.773 90.3789 103.916 90.6364 104.176C90.7619 104.302 90.9566 104.107 90.8315 103.981Z" fill="#1E3D44"/>
<path d="M83.369 111.996C82.8655 111.688 82.3618 111.381 81.8584 111.074C81.7067 110.981 81.5678 111.22 81.7193 111.312C82.223 111.619 82.7264 111.926 83.2298 112.234C83.3818 112.326 83.5204 112.088 83.369 111.996Z" fill="#1E3D44"/>
<path d="M82.48 113.452C82.0783 113.564 81.6768 113.676 81.2753 113.788C81.1046 113.836 81.177 114.102 81.3485 114.054C81.75 113.942 82.1515 113.83 82.5532 113.718C82.7236 113.67 82.6513 113.404 82.48 113.452Z" fill="#1E3D44"/>
<path d="M97.6625 124.184C98.3431 124.529 98.9786 124.956 99.5525 125.46C99.6855 125.576 99.881 125.382 99.7475 125.265C99.156 124.746 98.5031 124.302 97.8016 123.946C97.6438 123.866 97.5041 124.104 97.6625 124.184Z" fill="#1E3D44"/>
<path d="M98.5202 123.453C98.9248 123.858 99.3293 124.263 99.7338 124.667C99.8596 124.793 100.055 124.598 99.9288 124.472C99.5243 124.068 99.1198 123.663 98.7149 123.258C98.5895 123.133 98.3945 123.328 98.5202 123.453Z" fill="#1E3D44"/>
<path d="M94.8684 92.206C96.1586 88.2491 97.2222 84.2219 98.0534 80.1438C98.0886 79.9706 97.8231 79.8966 97.7877 80.0706C96.9562 84.1484 95.8929 88.1759 94.6028 92.1328C94.5477 92.3018 94.8137 92.3742 94.8684 92.206Z" fill="#375A60"/>
<path d="M87.8413 91.2628C87.7963 87.6678 87.905 84.0725 88.167 80.4864C88.1799 80.3095 87.9044 80.3104 87.8913 80.4864C87.6295 84.0725 87.5208 87.6678 87.5658 91.2628C87.568 91.4402 87.8435 91.4405 87.8413 91.2628Z" fill="#375A60"/>
<path d="M91.1063 93.2925C91.6679 93.2925 91.6687 92.42 91.1063 92.42C90.5451 92.42 90.544 93.2925 91.1063 93.2925Z" fill="#1E3D44"/>
<path d="M90.8789 95.872C91.4402 95.872 91.441 94.9995 90.8789 94.9995C90.3174 94.9995 90.3165 95.872 90.8789 95.872Z" fill="#1E3D44"/>
<path d="M90.8029 98.6792C91.3642 98.6792 91.3653 97.8067 90.8029 97.8067C90.2414 97.8067 90.2406 98.6792 90.8029 98.6792Z" fill="#1E3D44"/>
<path d="M90.53 73.0804H86.7363V72.2459H90.53C90.7605 72.2459 90.9474 72.4328 90.9474 72.6632C90.9474 72.8937 90.7605 73.0804 90.53 73.0804Z" fill="#177DFF"/>
<path d="M88.3813 73.4787H81.2005V71.8475H88.3813V73.4787Z" fill="#177DFF"/>
<path d="M82.5915 74.0763H74.4403V71.2501H82.5915V74.0763Z" fill="#177DFF"/>
<path d="M88.6375 73.0804H88.3813V72.2459H88.6375V73.0804Z" fill="#093266"/>
<path d="M83.1368 73.4787H82.5915V71.8475H83.1368V73.4787Z" fill="#093266"/>
<path d="M85.3624 75.3252C85.8731 74.8826 86.3433 74.3929 86.7646 73.8646C86.9601 73.6196 87.1507 73.3539 87.2023 73.0446C87.254 72.7356 87.1236 72.3744 86.833 72.2579C86.7087 72.2079 86.5584 72.2101 86.4491 72.2869C86.3396 72.364 86.2879 72.5238 86.3533 72.6406C86.412 72.7459 86.5455 72.7973 86.5913 72.9091C86.6489 73.0499 86.5341 73.2055 86.4022 73.2812C86.1452 73.4293 85.8284 73.4064 85.5322 73.3902C84.967 73.3586 84.3996 73.3664 83.8356 73.4128C83.7802 73.4173 83.7227 73.4232 83.6772 73.4539C83.6277 73.4874 83.6006 73.5441 83.5755 73.5983C83.3676 74.0495 83.16 74.501 82.9525 74.9525C83.4738 75.0977 83.721 75.3632 84.2423 75.5082C84.4524 75.5668 84.6676 75.6258 84.8852 75.6118C85.1031 75.5981 85.1975 75.4682 85.3624 75.3252Z" fill="#FCBA9D"/>
<path d="M85.9471 71.7075C85.889 71.603 85.8018 71.5058 85.6859 71.4756C85.5702 71.4452 85.4266 71.5055 85.3987 71.622C85.3333 71.5013 85.1916 71.4267 85.055 71.4412C84.9187 71.4558 84.7958 71.5586 84.7572 71.6905C84.739 71.5519 84.6016 71.4404 84.4625 71.451C84.3233 71.4619 84.2043 71.5932 84.2077 71.7329C84.1239 71.5988 83.9062 71.6192 83.7961 71.7329C83.6864 71.8466 83.6559 72.0131 83.6316 72.1693C83.6059 72.3339 83.6112 72.5512 83.7682 72.6068C83.9121 72.6577 84.0484 72.5213 84.1409 72.4001C84.1403 72.5487 84.2909 72.6711 84.4396 72.6644C84.5879 72.6577 84.7181 72.5431 84.7706 72.404C84.7497 72.5529 84.8983 72.6892 85.0483 72.6864C85.1986 72.6836 85.3305 72.5708 85.3925 72.4342C85.3805 72.5948 85.5252 72.7501 85.6867 72.749C85.894 72.7476 85.9731 72.5426 86.0192 72.3746C86.0801 72.152 86.0599 71.9112 85.9471 71.7075Z" fill="#FCBA9D"/>
<path d="M86.0485 88.2209C82.8113 90.1176 77.7937 88.607 77.359 88.5095C76.0362 88.2134 75.2039 86.7877 75.1793 85.4325C75.1547 84.0769 75.7604 82.7932 76.4373 81.6187C78.0706 78.7844 80.419 76.3315 82.9262 74.2303C83.8124 74.7407 84.7622 75.1399 85.7471 75.4157C83.8886 78.07 82.0372 80.868 80.257 83.5754C80.3861 83.4313 80.5026 83.1885 80.6881 83.1326C80.8736 83.0768 81.1152 83.1606 81.158 83.3497C81.2211 83.6283 80.835 83.8646 80.9035 84.1423C82.0336 83.6101 83.1354 83.2 84.2658 82.668C84.8382 82.3987 85.4135 82.1277 85.9345 81.769C86.3698 81.4698 86.828 81.0918 87.3529 81.151C87.2736 83.1952 86.5061 86.2267 86.0485 88.2209Z" fill="#1E3D44"/>
<path d="M84.389 88.7467C84.8273 87.3252 85.2654 85.9038 85.7038 84.4823C85.7563 84.3124 85.49 84.2398 85.4381 84.4091C84.9997 85.8306 84.5614 87.2521 84.1233 88.6735C84.0708 88.8434 84.3368 88.916 84.389 88.7467Z" fill="#375A60"/>
<path d="M104.486 102.358C103.962 102.671 103.643 103.258 103.11 103.555C102.443 103.928 101.509 103.708 101.078 103.077C100.935 102.868 100.899 102.501 101.143 102.434C100.873 102.414 100.591 102.243 100.541 101.977C100.491 101.71 100.794 101.42 101.033 101.549C100.776 101.515 100.533 101.389 100.357 101.199C100.274 101.109 100.203 100.994 100.217 100.872C100.25 100.579 100.668 100.559 100.956 100.623C100.743 100.614 100.52 100.602 100.334 100.497C100.148 100.392 100.013 100.164 100.085 99.9632C100.166 99.7383 100.457 99.662 100.691 99.7073C100.926 99.7528 101.137 99.8822 101.368 99.94C101.6 99.9975 101.89 99.9562 102.006 99.7469C102.044 99.6782 102.059 99.5986 102.065 99.5201C102.101 99.0471 101.817 98.5657 101.386 98.3682C101.261 98.3115 101.125 98.2755 101.014 98.1958C100.903 98.1162 100.82 97.9732 100.864 97.8435C100.9 97.7396 101.005 97.6768 101.107 97.6365C101.717 97.3965 102.49 97.736 102.726 98.3467C102.84 98.6426 102.837 98.9694 102.913 99.2776C102.988 99.5855 103.181 99.9045 103.493 99.9654C103.835 99.7975 104.074 99.6036 104.328 99.3192C104.668 100.226 104.596 101.396 104.486 102.358Z" fill="#FCBA9D"/>
<path d="M100.442 81.9699C103.212 84.6122 105.902 87.3401 108.505 90.1484C109.537 91.262 110.616 92.5351 110.631 94.0532C110.642 95.1422 110.095 96.1511 109.53 97.0823C108.232 99.2245 106.764 101.263 105.142 103.172C104.843 102.481 104.397 101.719 104.099 101.027C103.853 100.46 103.602 99.8542 103.693 99.2421C103.918 97.7217 105.225 96.3768 106.095 95.1098C105.943 95.2641 105.637 94.9146 105.626 94.6983C105.615 94.4821 105.792 94.2985 105.985 94.2013C106.178 94.1044 106.397 94.065 106.59 93.9683C105.417 93.3092 104.318 92.4384 103.144 91.7791C102.614 91.4818 102.078 91.179 101.645 90.7521C100.906 90.0215 100.541 88.9996 100.26 87.9991C99.7184 86.0723 99.676 83.8188 100.442 81.9699Z" fill="#1E3D44"/>
<path d="M100.747 84.5329C100.521 86.7156 100.909 88.9197 101.852 90.8999C101.928 91.06 102.166 90.9203 102.09 90.7608C101.167 88.8238 100.802 86.6662 101.023 84.5329C101.041 84.3569 100.765 84.358 100.747 84.5329Z" fill="#375A60"/>
<path d="M118.354 140.08H116.211V55.7439H118.354V140.08Z" fill="#1E3D44"/>
<path d="M162.347 97.2342C156.21 98.288 151.895 103.969 146.029 106.057C142.586 107.283 138.686 107.169 135.32 105.746C132.762 104.665 130.57 102.892 128.204 101.436C125.839 99.9808 123.119 98.8068 120.362 99.1418C118.295 99.3933 116.41 100.333 114.686 101.501C113.942 88.2204 114.367 75.0893 115.421 61.8301C118.493 59.2791 122.705 57.9694 126.596 58.867C131.541 60.0074 135.292 64.3822 140.27 65.3662C147.919 66.8784 155.011 59.9546 162.801 60.2768C165.22 65.9182 164.75 72.247 164.291 78.3678C163.829 84.5351 162.996 91.0837 162.347 97.2342Z" fill="#4597FF"/>
<path d="M153.787 82.9958C153.787 90.8938 147.384 97.2965 139.486 97.2965C131.588 97.2965 125.186 90.8938 125.186 82.9958C125.186 75.0977 131.588 68.695 139.486 68.695C147.384 68.695 153.787 75.0977 153.787 82.9958Z" fill="#74B1FF"/>
<path d="M150.889 82.9957C150.889 89.2935 145.784 94.3988 139.486 94.3988C133.189 94.3988 128.083 89.2935 128.083 82.9957C128.083 76.698 133.189 71.5927 139.486 71.5927C145.784 71.5927 150.889 76.698 150.889 82.9957Z" fill="#177DFF"/>
<path d="M138.367 89.4429C137.535 89.3885 136.754 89.2778 136.024 89.1102C135.294 88.9429 134.734 88.7724 134.345 88.5995V85.3881H137.913C137.913 85.7342 137.983 85.9801 138.124 86.1259C138.264 86.272 138.529 86.3449 138.919 86.3449C139.265 86.3449 139.516 86.291 139.673 86.1829C139.829 86.0748 139.908 85.9124 139.908 85.6962C139.908 85.5451 139.84 85.407 139.705 85.2827C139.57 85.1584 139.324 85.0313 138.967 84.9014C137.767 84.458 136.84 84.0498 136.186 83.6769C135.531 83.3039 135.037 82.8555 134.702 82.3305C134.367 81.8064 134.199 81.1331 134.199 80.3115C134.199 79.1979 134.523 78.3164 135.172 77.6677C135.821 77.019 136.886 76.6189 138.367 76.4675V74.6024H140.492V76.4351C141.368 76.4893 142.163 76.6164 142.876 76.8162C143.59 77.0165 144.119 77.2244 144.466 77.4409V80.3439H141.06C141.06 79.8033 140.762 79.5329 140.168 79.5329C139.811 79.5329 139.554 79.5792 139.397 79.6709C139.24 79.7628 139.162 79.9223 139.162 80.1494C139.162 80.3224 139.232 80.452 139.373 80.5386C139.513 80.6252 139.778 80.7278 140.168 80.8468C141.184 81.1711 142.008 81.4983 142.641 81.8279C143.273 82.1579 143.787 82.601 144.182 83.1581C144.576 83.7149 144.774 84.4312 144.774 85.307C144.774 86.5396 144.409 87.5021 143.679 88.1938C142.949 88.8859 141.887 89.2968 140.492 89.4265V91.3891H138.367V89.4429Z" fill="#74B1FF"/>
<path d="M119.456 97.9531C119.387 88.718 119.319 79.4829 119.251 70.2477C119.232 67.6473 119.212 65.0463 119.193 62.4458C119.192 62.2684 118.916 62.2682 118.918 62.4458C118.986 71.6809 119.054 80.9161 119.122 90.1509C119.142 92.7516 119.161 95.3523 119.18 97.9531C119.182 98.1302 119.457 98.1308 119.456 97.9531Z" fill="#74B1FF"/>
<path d="M127.133 62.816C130.238 63.2066 132.411 66.0579 135.572 66.2837C135.749 66.2962 135.748 66.0208 135.572 66.0082C132.429 65.7833 130.242 62.9317 127.133 62.5406C126.957 62.5182 126.959 62.7942 127.133 62.816Z" fill="#74B1FF"/>
<path d="M132.578 66.7552C133.087 66.9131 133.596 67.0707 134.105 67.2288C134.275 67.2813 134.348 67.0154 134.179 66.9628C133.67 66.8053 133.16 66.6474 132.651 66.4896C132.481 66.437 132.409 66.703 132.578 66.7552Z" fill="#74B1FF"/>
<path d="M142.418 103.42C147.83 103.291 151.445 98.6493 155.458 95.6881C156.673 94.7916 157.976 94.0141 159.404 93.5084C159.57 93.4498 159.499 93.1832 159.331 93.2428C154.394 94.9911 151.353 99.6584 146.755 101.983C145.402 102.666 143.94 103.108 142.418 103.144C142.241 103.148 142.241 103.424 142.418 103.42Z" fill="#74B1FF"/>
<path d="M148.546 99.0091C150.299 97.4236 152.115 95.908 153.989 94.4681C154.128 94.3616 153.991 94.1222 153.85 94.2303C151.957 95.6842 150.122 97.213 148.351 98.8144C148.219 98.9337 148.415 99.1281 148.546 99.0091Z" fill="#74B1FF"/>
<path d="M154.549 68.1351C155.515 67.4115 156.481 66.6879 157.447 65.9643C157.588 65.8593 157.45 65.6199 157.308 65.7263C156.342 66.4499 155.376 67.1738 154.409 67.8973C154.269 68.0024 154.406 68.2418 154.549 68.1351Z" fill="#74B1FF"/>
<path d="M157.074 68.3329C157.377 68.1303 157.681 67.928 157.984 67.7258C158.046 67.6844 158.073 67.6043 158.034 67.5372C157.998 67.4757 157.907 67.4464 157.845 67.4877C157.542 67.69 157.238 67.8926 156.935 68.0951C156.873 68.1362 156.846 68.2164 156.885 68.2834C156.921 68.3449 157.012 68.3745 157.074 68.3329Z" fill="#74B1FF"/>
<path d="M55.3893 121.631L112.199 137.534V160.169H71.5424L55.3893 121.631Z" fill="#177DFF"/>
<path d="M157.982 121.631L112.199 137.534V160.169H141.829L157.982 121.631Z" fill="#177DFF"/>
<path d="M112.586 160.168H111.811V136.718H112.586V160.168Z" fill="#093266"/>
<path d="M71.2831 146.418C74.1054 149.173 76.7327 152.121 79.1454 155.241C79.2596 155.389 79.4641 155.182 79.351 155.035C76.9383 151.915 74.311 148.967 71.4887 146.212C71.3549 146.081 71.149 146.287 71.2831 146.418Z" fill="#093266"/>
<path d="M74.3158 151.579C75.6308 152.894 76.9458 154.209 78.2611 155.524C78.3936 155.657 78.5992 155.452 78.4665 155.319C77.1514 154.004 75.8364 152.689 74.5214 151.374C74.389 151.241 74.1831 151.447 74.3158 151.579Z" fill="#093266"/>
<path d="M139.361 132.647C141.163 135.189 142.965 137.731 144.767 140.273C144.875 140.425 145.127 140.28 145.018 140.127C143.216 137.584 141.414 135.042 139.612 132.5C139.505 132.348 139.252 132.493 139.361 132.647Z" fill="#093266"/>
<path d="M138.611 137.047C139.429 138.051 140.247 139.056 141.065 140.06C141.183 140.205 141.388 139.999 141.27 139.855C140.453 138.85 139.635 137.845 138.817 136.841C138.699 136.696 138.494 136.903 138.611 137.047Z" fill="#093266"/>
<path d="M52.6802 167.224C53.1474 166.372 53.9063 165.534 54.9261 165.416C55.8688 165.306 56.9901 166.139 56.7463 167.162C56.6896 167.4 56.9686 167.554 57.1468 167.395C57.972 166.656 59.0398 165.988 60.1937 166.066C61.1685 166.131 62.1843 166.83 62.2823 167.859C62.2997 168.042 62.5461 168.204 62.6913 168.028C63.3354 167.246 64.116 166.269 65.2198 166.233C65.6224 166.221 66.0599 166.327 66.3588 166.611C66.7047 166.94 66.6843 167.49 67.0936 167.769C67.7417 168.213 68.5307 167.566 69.0548 167.219C69.4403 166.964 69.8178 166.728 70.2994 166.758C70.7948 166.788 71.237 167.047 71.4977 167.467C71.7284 167.84 71.8517 168.269 72.2162 168.542C72.4587 168.724 72.749 168.806 73.051 168.783C73.6802 168.735 74.2409 168.329 74.7658 168.017C75.267 167.719 75.989 167.26 76.5592 167.653C77.1414 168.053 77.2462 168.887 77.8421 169.283C78.7565 169.89 79.389 168.793 80.1874 168.555C81.1236 168.276 82.2582 168.775 82.6116 169.701C82.7203 169.986 83.1838 169.862 83.0734 169.573C82.7829 168.812 82.1305 168.268 81.3399 168.077C80.4638 167.865 79.7647 168.145 79.0758 168.67C78.6419 169.001 78.2312 169.108 77.87 168.647C77.6297 168.34 77.4736 167.976 77.2372 167.666C76.8073 167.101 76.189 166.9 75.5123 167.119C74.8335 167.338 74.2727 167.803 73.6366 168.111C73.3611 168.245 73.0222 168.376 72.7152 168.274C72.2277 168.112 72.107 167.509 71.848 167.126C71.3742 166.424 70.4184 166.101 69.6141 166.369C69.2009 166.507 68.8458 166.788 68.486 167.024C68.175 167.228 67.5839 167.677 67.2673 167.272C67.0835 167.036 67.0492 166.711 66.8664 166.467C66.7441 166.302 66.5899 166.164 66.4161 166.056C66.0202 165.808 65.5239 165.721 65.0633 165.765C63.8843 165.878 63.0574 166.834 62.3526 167.689C62.4889 167.746 62.6252 167.803 62.7614 167.859C62.6475 166.665 61.6275 165.797 60.4755 165.617C59.0977 165.403 57.795 166.173 56.8079 167.056C56.9414 167.134 57.0748 167.212 57.2082 167.289C57.4924 166.097 56.4363 165.035 55.289 164.932C53.9582 164.812 52.8559 165.907 52.2665 166.983C52.1182 167.253 52.5317 167.495 52.6802 167.224Z" fill="white"/>
<path d="M97.2831 167.798C97.3725 167.153 97.8581 166.582 98.5294 166.505C99.1882 166.43 99.8171 166.886 100.023 167.498C100.084 167.68 100.281 167.719 100.424 167.604C101.226 166.952 102.154 166.18 103.236 166.119C104.083 166.071 105.028 166.503 105.225 167.39C105.269 167.586 105.571 167.629 105.663 167.447C106.064 166.651 106.907 166.117 107.811 166.182C108.683 166.246 109.447 166.879 109.727 167.695C109.773 167.827 109.946 167.936 110.079 167.839C110.932 167.211 111.892 166.48 112.996 166.441C113.875 166.409 114.834 166.907 114.997 167.828C115.031 168.018 115.275 168.042 115.398 167.934C116.101 167.315 116.916 166.581 117.898 166.509C118.667 166.453 119.608 166.932 119.64 167.783C119.65 168.037 119.948 168.088 120.086 167.904C120.595 167.234 121.31 166.549 122.195 166.483C122.929 166.428 123.776 166.928 123.811 167.718C123.825 168.025 124.304 168.027 124.29 167.718C124.247 166.73 123.345 166.053 122.401 166.003C121.257 165.942 120.314 166.816 119.673 167.663C119.822 167.703 119.971 167.743 120.119 167.783C120.081 166.774 119.158 166.113 118.208 166.035C116.972 165.932 115.924 166.835 115.059 167.595C115.192 167.63 115.326 167.665 115.459 167.701C115.278 166.676 114.289 166.064 113.309 165.972C112.002 165.85 110.833 166.692 109.837 167.425C109.955 167.473 110.072 167.52 110.19 167.568C109.85 166.58 108.973 165.827 107.922 165.714C106.823 165.595 105.742 166.229 105.249 167.205C105.395 167.224 105.541 167.243 105.687 167.262C105.46 166.241 104.435 165.667 103.443 165.638C102.142 165.599 101.038 166.491 100.085 167.265C100.218 167.3 100.352 167.336 100.485 167.371C100.21 166.553 99.4108 165.954 98.5294 166.026C97.6603 166.097 96.9392 166.818 96.8213 167.671C96.7794 167.972 97.2409 168.103 97.2831 167.798Z" fill="white"/>
<path d="M146.792 161.041C146.902 160.557 147.011 160.049 147.289 159.628C147.542 159.245 148.033 158.907 148.515 159.027C149.178 159.192 149.336 160.142 150.103 160.139C150.444 160.138 150.715 159.921 150.943 159.691C151.265 159.365 151.551 159.093 152.007 158.966C152.407 158.855 152.844 158.862 153.235 159.008C153.646 159.161 153.94 159.499 154.332 159.686C154.955 159.984 155.504 159.68 156.002 159.297C156.255 159.103 156.537 158.838 156.861 158.772C157.288 158.686 157.589 159.038 157.875 159.294C158.353 159.721 158.882 159.927 159.49 159.629C160.033 159.364 160.515 158.648 161.15 158.622C161.629 158.602 162.028 159.094 162.507 159.169C162.984 159.244 163.45 159.097 163.895 158.939C164.346 158.778 164.774 158.589 165.262 158.675C165.652 158.744 166.067 158.952 166.011 159.405C165.973 159.71 166.452 159.708 166.49 159.405C166.58 158.676 165.876 158.273 165.247 158.192C164.293 158.068 163.443 158.901 162.512 158.684C162.062 158.58 161.751 158.186 161.275 158.146C160.946 158.119 160.636 158.247 160.364 158.422C159.784 158.796 159.135 159.653 158.4 159.113C157.824 158.689 157.372 158.061 156.573 158.362C155.962 158.592 155.334 159.551 154.619 159.291C154.214 159.144 153.918 158.783 153.522 158.61C153.147 158.446 152.729 158.384 152.322 158.423C151.933 158.461 151.55 158.584 151.222 158.797C150.889 159.015 150.521 159.656 150.103 159.66C149.697 159.664 149.394 159.03 149.113 158.806C148.792 158.551 148.394 158.477 147.996 158.567C146.901 158.815 146.549 159.953 146.33 160.914C146.261 161.214 146.723 161.342 146.792 161.041Z" fill="white"/>
<path d="M140.162 166.698C140.539 165.821 142.08 165.874 142.342 166.819C142.389 166.989 142.617 167.057 142.742 166.925C143.534 166.082 144.95 165.939 145.872 166.66C146.112 166.848 146.453 166.511 146.211 166.321C145.088 165.443 143.39 165.536 142.403 166.586C142.537 166.621 142.67 166.656 142.803 166.692C142.44 165.38 140.297 165.182 139.749 166.456C139.628 166.736 140.041 166.981 140.162 166.698Z" fill="white"/>
<path d="M82.6412 162.178C82.8256 161.353 83.5444 160.738 84.3764 160.615C84.8539 160.544 85.2296 160.689 85.6599 160.875C86.0412 161.041 86.415 161.094 86.795 160.899C87.1638 160.709 87.4188 160.367 87.763 160.143C88.1056 159.921 88.5084 159.804 88.9155 159.789C89.7388 159.759 90.5663 160.114 91.0329 160.807C91.1527 160.985 91.3983 160.946 91.4707 160.75C91.8115 159.826 92.7217 159.203 93.685 159.089C94.1776 159.031 94.6788 159.11 95.1182 159.342C95.5929 159.593 96.0097 159.958 96.5802 159.927C97.5857 159.871 98.1875 158.83 99.1963 158.705C100.186 158.583 101.209 159.058 101.703 159.931C101.772 160.054 101.982 160.101 102.079 159.98C102.744 159.148 103.851 158.709 104.901 158.973C105.912 159.227 106.681 160.069 106.908 161.074C106.976 161.375 107.438 161.248 107.37 160.947C107.107 159.785 106.193 158.804 105.029 158.511C103.826 158.209 102.51 158.678 101.74 159.641C101.866 159.657 101.991 159.673 102.117 159.689C101.602 158.779 100.606 158.234 99.5673 158.209C99.0535 158.197 98.5375 158.322 98.0939 158.583C97.5865 158.882 97.0764 159.496 96.4369 159.444C95.8312 159.395 95.3378 158.838 94.7425 158.684C94.2471 158.557 93.7199 158.568 93.2246 158.689C92.2169 158.938 91.3695 159.645 91.0086 160.622C91.1547 160.603 91.3005 160.584 91.4466 160.565C90.96 159.843 90.1794 159.411 89.3167 159.324C88.8657 159.278 88.3992 159.334 87.9762 159.5C87.5376 159.671 87.2308 159.964 86.876 160.261C86.593 160.498 86.3329 160.611 85.9722 160.49C85.6982 160.397 85.4598 160.24 85.1752 160.174C84.7569 160.078 84.313 160.106 83.9054 160.236C83.0633 160.505 82.3744 161.178 82.1791 162.051C82.1121 162.351 82.5739 162.48 82.6412 162.178Z" fill="white"/>
<path d="M119.088 160.643C119.286 159.735 119.622 158.37 120.805 158.409C121.364 158.427 121.422 158.91 121.812 159.174C122.119 159.382 122.47 159.284 122.735 159.06C123.049 158.794 123.233 158.416 123.594 158.201C123.911 158.012 124.282 157.939 124.648 157.953C125.391 157.979 126.147 158.391 126.41 159.113C126.466 159.266 126.686 159.37 126.811 159.219C127.298 158.629 128.014 158.294 128.78 158.287C129.153 158.284 129.528 158.357 129.864 158.521C130.215 158.694 130.509 158.982 130.889 159.097C131.664 159.33 132.061 158.558 132.767 158.469C133.469 158.38 134.207 158.817 134.417 159.497C134.478 159.695 134.746 159.733 134.855 159.554C135.444 158.589 137.168 158.821 137.485 159.905C137.571 160.2 138.033 160.075 137.947 159.778C137.513 158.292 135.248 157.992 134.441 159.313C134.587 159.331 134.733 159.351 134.879 159.37C134.664 158.674 134.069 158.171 133.359 158.026C133.019 157.956 132.658 157.966 132.33 158.084C131.899 158.239 131.505 158.786 131.016 158.635C130.58 158.499 130.235 158.137 129.8 157.978C129.426 157.84 129.014 157.787 128.618 157.813C127.789 157.867 127.002 158.237 126.472 158.88C126.605 158.916 126.739 158.951 126.872 158.986C126.294 157.401 123.957 156.92 122.841 158.223C122.71 158.375 122.467 158.788 122.244 158.807C121.967 158.83 121.806 158.377 121.613 158.216C121.261 157.922 120.768 157.875 120.336 157.987C119.194 158.282 118.847 159.502 118.626 160.516C118.561 160.816 119.023 160.945 119.088 160.643Z" fill="white"/>
<path d="M162.016 156.786H155.85V134.57H162.016V156.786Z" fill="#92CEE0"/>
<path d="M153.892 136.386H163.973L159.058 129.876L153.892 136.386Z" fill="#92CEE0"/>
<path d="M55.5559 161.786H49.3907V139.57H55.5559V161.786Z" fill="#92CEE0"/>
<path d="M47.4329 141.387H57.5138L52.5983 134.876L47.4329 141.387Z" fill="#92CEE0"/>
<path d="M164.684 139.973H170.238L167.53 136.386L164.684 139.973Z" fill="#92CEE0"/>
<path d="M168.66 157.711H166.263V138.951H168.66V157.711Z" fill="#92CEE0"/>
<path d="M57.8763 143.651H63.4296L60.7217 140.064L57.8763 143.651Z" fill="#92CEE0"/>
<path d="M61.8515 161.389H59.4543V142.629H61.8515V161.389Z" fill="#92CEE0"/>
<path d="M102.165 58.0378L103.398 60.1561L104.823 58.0714L102.165 58.0378Z" fill="#92CEE0"/>
<path d="M155.942 112.812C157.037 115.893 155.427 119.278 152.346 120.373C149.265 121.469 145.88 119.859 144.785 116.778C143.69 113.697 145.3 110.312 148.38 109.216C151.461 108.121 154.847 109.731 155.942 112.812Z" fill="#92CEE0"/>
<path d="M154.811 113.213C155.685 115.67 154.401 118.37 151.945 119.243C149.488 120.116 146.789 118.833 145.915 116.376C145.042 113.919 146.325 111.22 148.782 110.347C151.239 109.473 153.938 110.757 154.811 113.213Z" fill="white"/>
<path d="M150.821 117.465C150.489 117.559 150.168 117.624 149.861 117.66C149.553 117.696 149.311 117.707 149.135 117.694L148.689 116.441L150.082 115.946C150.13 116.081 150.191 116.167 150.266 116.205C150.341 116.242 150.455 116.234 150.607 116.18C150.741 116.132 150.832 116.076 150.878 116.012C150.924 115.948 150.933 115.874 150.902 115.79C150.881 115.731 150.836 115.687 150.766 115.656C150.696 115.627 150.582 115.611 150.425 115.61C149.896 115.604 149.477 115.573 149.17 115.518C148.863 115.464 148.608 115.357 148.405 115.199C148.201 115.041 148.043 114.801 147.929 114.481C147.774 114.047 147.779 113.658 147.942 113.315C148.105 112.972 148.465 112.668 149.022 112.404L148.763 111.676L149.592 111.381L149.846 112.096C150.195 111.996 150.523 111.935 150.829 111.914C151.135 111.893 151.37 111.901 151.535 111.937L151.938 113.07L150.609 113.542C150.534 113.331 150.381 113.267 150.149 113.35C150.01 113.399 149.916 113.453 149.868 113.51C149.819 113.568 149.811 113.641 149.842 113.73C149.866 113.797 149.911 113.838 149.978 113.852C150.045 113.866 150.163 113.87 150.331 113.862C150.772 113.848 151.14 113.861 151.432 113.902C151.725 113.943 151.986 114.045 152.217 114.207C152.448 114.37 152.625 114.622 152.747 114.963C152.917 115.444 152.909 115.87 152.72 116.241C152.531 116.612 152.174 116.92 151.647 117.164L151.92 117.929L151.091 118.224L150.821 117.465Z" fill="#92CEE0"/>
<path d="M63.4904 82.6155C62.4524 85.7163 59.0975 87.3884 55.9967 86.3502C52.8962 85.3123 51.2239 81.9573 52.262 78.8567C53.3001 75.7559 56.6551 74.0839 59.7557 75.1217C62.8563 76.1599 64.5284 79.515 63.4904 82.6155Z" fill="#92CEE0"/>
<path d="M62.3529 82.2347C61.5252 84.7069 58.85 86.0404 56.3776 85.2129C53.9052 84.3851 52.5719 81.7098 53.3995 79.2376C54.2272 76.7651 56.9025 75.4319 59.3749 76.2594C61.8473 77.0872 63.1804 79.7622 62.3529 82.2347Z" fill="white"/>
<path d="M56.5896 83.1201C56.2699 82.9893 55.9776 82.8432 55.7131 82.6814C55.4488 82.5197 55.2513 82.3794 55.1212 82.2604L55.5432 80.9996L56.9441 81.4684C56.8987 81.6044 56.8939 81.71 56.9299 81.7858C56.9658 81.8617 57.0603 81.9252 57.2131 81.9763C57.3489 82.0218 57.4548 82.0338 57.5304 82.0118C57.6062 81.99 57.6583 81.9366 57.6867 81.8517C57.7067 81.7922 57.6982 81.7293 57.6616 81.6628C57.6248 81.5961 57.5448 81.5139 57.4219 81.4161C57.009 81.0842 56.6988 80.8021 56.4908 80.5696C56.2831 80.3372 56.1478 80.0964 56.0852 79.8463C56.0225 79.5963 56.0453 79.3102 56.1532 78.9872C56.2995 78.5503 56.5428 78.2469 56.8827 78.0776C57.2227 77.908 57.6933 77.8909 58.2948 78.0262L58.5399 77.2939L59.3741 77.5733L59.1331 78.2927C59.4699 78.429 59.7651 78.5835 60.0191 78.7556C60.2729 78.928 60.4535 79.0791 60.561 79.2096L60.1795 80.3495L58.8424 79.9019C58.9133 79.6896 58.8321 79.5443 58.5987 79.4661C58.4587 79.4194 58.3517 79.4038 58.2781 79.4191C58.2044 79.4345 58.1527 79.4868 58.1229 79.5759C58.1002 79.6438 58.1107 79.7041 58.1547 79.7566C58.1983 79.8089 58.2889 79.884 58.4261 79.9818C58.7823 80.2427 59.0632 80.4797 59.268 80.6923C59.473 80.9049 59.6165 81.1463 59.6982 81.417C59.7799 81.6874 59.7633 81.9945 59.6481 82.3384C59.4862 82.8222 59.2164 83.1522 58.8389 83.3276C58.4614 83.5036 57.9904 83.5252 57.4258 83.3927L57.168 84.1633L56.3338 83.8842L56.5896 83.1201Z" fill="#92CEE0"/>
<path d="M163.506 104.939C164.187 107.225 162.886 109.63 160.6 110.31C158.315 110.992 155.91 109.691 155.229 107.405C154.548 105.119 155.848 102.714 158.134 102.034C160.42 101.353 162.825 102.653 163.506 104.939Z" fill="#92CEE0"/>
<path d="M162.667 105.189C163.21 107.011 162.173 108.929 160.351 109.472C158.528 110.015 156.61 108.978 156.068 107.155C155.524 105.333 156.562 103.415 158.384 102.872C160.207 102.329 162.124 103.366 162.667 105.189Z" fill="white"/>
<path d="M159.599 108.134C159.354 108.19 159.118 108.226 158.892 108.24C158.667 108.255 158.49 108.253 158.362 108.237L158.085 107.307L159.118 107C159.148 107.1 159.19 107.165 159.243 107.195C159.296 107.226 159.379 107.224 159.492 107.19C159.592 107.16 159.66 107.123 159.696 107.078C159.732 107.034 159.741 106.98 159.722 106.917C159.709 106.873 159.678 106.839 159.628 106.815C159.578 106.791 159.496 106.775 159.381 106.768C158.996 106.743 158.692 106.705 158.471 106.654C158.249 106.602 158.068 106.515 157.925 106.392C157.783 106.269 157.676 106.089 157.606 105.851C157.51 105.529 157.528 105.246 157.659 105.002C157.791 104.758 158.065 104.551 158.48 104.379L158.32 103.84L158.934 103.656L159.093 104.187C159.351 104.127 159.592 104.095 159.816 104.092C160.039 104.088 160.211 104.102 160.329 104.135L160.58 104.975L159.594 105.269C159.547 105.113 159.438 105.06 159.266 105.111C159.163 105.142 159.092 105.177 159.055 105.217C159.017 105.258 159.009 105.31 159.028 105.376C159.043 105.426 159.074 105.458 159.122 105.471C159.171 105.484 159.256 105.491 159.379 105.492C159.701 105.498 159.968 105.521 160.179 105.562C160.391 105.603 160.578 105.687 160.74 105.814C160.902 105.941 161.021 106.132 161.097 106.385C161.203 106.742 161.18 107.052 161.029 107.315C160.877 107.578 160.605 107.789 160.213 107.946L160.382 108.514L159.767 108.697L159.599 108.134Z" fill="#92CEE0"/>
<path d="M53.1541 65.1432C60.5502 65.3824 67.9633 65.098 75.3193 64.2925C75.1586 63.356 73.7908 62.7872 72.9831 63.2876C72.9965 63.308 72.7859 62.8797 72.799 62.9001C72.4434 62.0664 71.9268 61.2806 71.1968 60.7427C70.4668 60.2052 69.5035 59.9429 68.629 60.182C67.5087 60.4882 66.7399 61.5298 66.2901 62.6006C66.3996 61.1571 65.3327 59.6373 64.0104 59.0469C62.6881 58.4569 61.0615 58.6944 59.8968 59.5546C58.7321 60.4145 58.0362 61.841 57.9641 63.287C57.3696 62.547 56.0136 62.5283 55.1726 62.9683C54.3335 63.4072 53.5468 64.2816 53.1541 65.1432Z" fill="#92CEE0"/>
<path d="M130.48 57.3492C136.445 58.1837 142.47 58.5958 148.493 58.5812C148.444 57.8096 147.387 57.2307 146.69 57.5654C146.699 57.5833 146.565 57.2181 146.574 57.236C146.359 56.5303 146.009 55.8492 145.464 55.3511C144.92 54.8527 144.163 54.5568 143.435 54.6744C142.501 54.8256 141.789 55.6017 141.332 56.4295C141.546 55.2706 140.814 53.9478 139.795 53.3558C138.776 52.7635 137.439 52.8146 136.421 53.41C135.404 54.0053 134.717 55.0993 134.533 56.2638C134.116 55.6131 133.021 55.4804 132.302 55.7634C131.585 56.0462 130.872 56.6859 130.48 57.3492Z" fill="#92CEE0"/>
</svg>
