<svg width="342" height="197" viewBox="0 0 342 197" fill="none" xmlns="http://www.w3.org/2000/svg">
<g clip-path="url(#clip0_145_24731)">
<rect width="342" height="197" rx="16" fill="#177DFF"/>
<g opacity="0.24">
<path fill-rule="evenodd" clip-rule="evenodd" d="M-151.301 138.958C-119.105 108.897 -78.4441 80.5628 -38.6951 99.1416C7.77111 120.86 40.4518 172.561 26.4996 222.063C14.5184 264.572 -41.654 259.445 -85.4488 265.024C-128.205 270.47 -181.54 289.202 -201.444 251.099C-222.33 211.115 -184.412 169.874 -151.301 138.958Z" stroke="#E8F2FF"/>
<path fill-rule="evenodd" clip-rule="evenodd" d="M-138.301 130.958C-106.105 100.897 -65.4441 72.5628 -25.6951 91.1416C20.7711 112.86 53.4518 164.561 39.4996 214.063C27.5184 256.572 -28.654 251.445 -72.4488 257.024C-115.205 262.47 -168.54 281.202 -188.444 243.099C-209.33 203.115 -171.412 161.874 -138.301 130.958Z" stroke="#E8F2FF"/>
<path fill-rule="evenodd" clip-rule="evenodd" d="M-125.301 124.958C-93.1047 94.8968 -52.4441 66.5628 -12.6951 85.1416C33.7711 106.86 66.4518 158.561 52.4996 208.063C40.5184 250.572 -15.654 245.445 -59.4488 251.024C-102.205 256.47 -155.54 275.202 -175.444 237.099C-196.33 197.115 -158.412 155.874 -125.301 124.958Z" stroke="#E8F2FF"/>
<path fill-rule="evenodd" clip-rule="evenodd" d="M-109.301 115.958C-77.1047 85.8968 -36.4441 57.5628 3.30488 76.1416C49.7711 97.8602 82.4518 149.561 68.4996 199.063C56.5184 241.572 0.34604 236.445 -43.4488 242.024C-86.2047 247.47 -139.54 266.202 -159.444 228.099C-180.33 188.115 -142.412 146.874 -109.301 115.958Z" stroke="#E8F2FF"/>
</g>
</g>
<defs>
<clipPath id="clip0_145_24731">
<rect width="342" height="197" rx="16" fill="white"/>
</clipPath>
</defs>
</svg>
