<svg width="25" height="24" viewBox="0 0 25 24" fill="none" xmlns="http://www.w3.org/2000/svg">
<path d="M18.0734 22.75H6.59337C4.10337 22.75 2.08337 20.73 2.08337 18.24V11.51C2.08337 9.02001 4.10337 7 6.59337 7H18.0734C20.5634 7 22.5834 9.02001 22.5834 11.51V12.95C22.5834 13.36 22.2434 13.7 21.8334 13.7H19.8134C19.4634 13.7 19.1434 13.83 18.9134 14.07L18.9034 14.08C18.6234 14.35 18.4934 14.72 18.5234 15.1C18.5834 15.76 19.2134 16.29 19.9334 16.29H21.8334C22.2434 16.29 22.5834 16.63 22.5834 17.04V18.23C22.5834 20.73 20.5634 22.75 18.0734 22.75ZM6.59337 8.5C4.93337 8.5 3.58337 9.85001 3.58337 11.51V18.24C3.58337 19.9 4.93337 21.25 6.59337 21.25H18.0734C19.7334 21.25 21.0834 19.9 21.0834 18.24V17.8H19.9334C18.4234 17.8 17.1434 16.68 17.0234 15.24C16.9434 14.42 17.2434 13.61 17.8434 13.02C18.3634 12.49 19.0634 12.2 19.8134 12.2H21.0834V11.51C21.0834 9.85001 19.7334 8.5 18.0734 8.5H6.59337Z" fill="#BAC2CC"/>
<path d="M2.83337 13.16C2.42337 13.16 2.08337 12.82 2.08337 12.41V7.84006C2.08337 6.35006 3.02337 5.00001 4.41337 4.47001L12.3534 1.47001C13.1734 1.16001 14.0834 1.27005 14.7934 1.77005C15.5134 2.27005 15.9334 3.08005 15.9334 3.95005V7.75003C15.9334 8.16003 15.5934 8.50003 15.1834 8.50003C14.7734 8.50003 14.4334 8.16003 14.4334 7.75003V3.95005C14.4334 3.57005 14.2534 3.22003 13.9334 3.00003C13.6134 2.78003 13.2334 2.73003 12.8734 2.87003L4.93337 5.87003C4.12337 6.18003 3.57337 6.97006 3.57337 7.84006V12.41C3.58337 12.83 3.24337 13.16 2.83337 13.16Z" fill="#BAC2CC"/>
<path d="M19.9333 17.8002C18.4233 17.8002 17.1433 16.6802 17.0233 15.2402C16.9433 14.4102 17.2433 13.6002 17.8433 13.0102C18.3533 12.4902 19.0533 12.2002 19.8033 12.2002H21.8833C22.8733 12.2302 23.6333 13.0102 23.6333 13.9702V16.0302C23.6333 16.9902 22.8733 17.7702 21.9133 17.8002H19.9333ZM21.8633 13.7002H19.8133C19.4633 13.7002 19.1433 13.8302 18.9133 14.0702C18.6233 14.3502 18.4833 14.7302 18.5233 15.1102C18.5833 15.7702 19.2133 16.3002 19.9333 16.3002H21.8933C22.0233 16.3002 22.1433 16.1802 22.1433 16.0302V13.9702C22.1433 13.8202 22.0233 13.7102 21.8633 13.7002Z" fill="#BAC2CC"/>
<path d="M14.3334 12.75H7.33337C6.92337 12.75 6.58337 12.41 6.58337 12C6.58337 11.59 6.92337 11.25 7.33337 11.25H14.3334C14.7434 11.25 15.0834 11.59 15.0834 12C15.0834 12.41 14.7434 12.75 14.3334 12.75Z" fill="#BAC2CC"/>
</svg>
